<svg viewBox="0 0 364.17 255.86" xmlns="http://www.w3.org/2000/svg" xmlns:xlink="http://www.w3.org/1999/xlink" id="Laag_2" overflow="hidden"><defs><linearGradient x1="12.19" y1="72.34" x2="356.18" y2="72.34" gradientUnits="userSpaceOnUse" id="linear-gradient"><stop offset="0" stop-color="#F4A500"/><stop offset="0.25" stop-color="#E95A0C"/><stop offset="0.5" stop-color="#E40050"/><stop offset="0.75" stop-color="#821F81"/><stop offset="1" stop-color="#009EE2"/></linearGradient><linearGradient x1="17.37" y1="82.31" x2="238.69" y2="86.18" gradientUnits="userSpaceOnUse" id="linear-gradient-2"><stop offset="0" stop-color="#D05C05"/><stop offset="0.33" stop-color="#AF0B2B"/><stop offset="0.75" stop-color="#B0063E"/><stop offset="1" stop-color="#3F2071"/></linearGradient><linearGradient x1="4.53" y1="143.94" x2="364" y2="143.94" xlink:href="#linear-gradient" id="linear-gradient-3"></linearGradient><linearGradient x1="4.53" y1="142.51" x2="364" y2="142.51" gradientUnits="userSpaceOnUse" id="linear-gradient-4"><stop offset="0" stop-color="#CE8D00"/><stop offset="0.25" stop-color="#C54E07"/><stop offset="0.5" stop-color="#C10344"/><stop offset="0.75" stop-color="#71196F"/><stop offset="1" stop-color="#0087C1"/></linearGradient><linearGradient x1="210.11" y1="100.4" x2="218.86" y2="100.4" gradientUnits="userSpaceOnUse" id="linear-gradient-5"><stop offset="0" stop-color="#872266"/><stop offset="1" stop-color="#711D62"/></linearGradient><linearGradient x1="4.63" y1="206.33" x2="364.17" y2="206.33" gradientUnits="userSpaceOnUse" id="linear-gradient-6"><stop offset="0" stop-color="#E40050"/><stop offset="1" stop-color="#821F81"/></linearGradient><linearGradient x1="4.37" y1="155.93" x2="326.06" y2="155.93" xlink:href="#linear-gradient" id="linear-gradient-7"></linearGradient><linearGradient x1="4.37" y1="164.38" x2="326.06" y2="164.38" xlink:href="#linear-gradient" id="linear-gradient-8"></linearGradient><linearGradient x1="4.37" y1="164.38" x2="326.06" y2="164.38" xlink:href="#linear-gradient" id="linear-gradient-9"></linearGradient></defs><g id="Laag_1-2"><g><g><path d="M299.47 67.88C283.21 62.65 271.16 73.09 254.95 67.88 254.95 58.81 254.95 49.75 254.95 40.68 271.16 45.89 283.22 35.45 299.47 40.68L299.47 67.88Z" fill="#FFFFFF"/><path d="M264.74 69.88C261.56 69.88 258.26 69.47 254.79 68.36L254.44 68.24 254.44 39.97 255.11 40.18C263.08 42.74 270.2 41.43 277.09 40.16 284.11 38.86 291.38 37.53 299.64 40.18L299.99 40.3 299.99 68.57 299.32 68.36C291.31 65.79 284.18 67.1 277.28 68.37 273.23 69.12 269.1 69.88 264.75 69.88Z" fill="#F8E700"/></g><g id="Page-1"><path d="M279.8 50.61C281.28 51.6 281.16 52.93 282.37 54.76 283.58 56.6 284.82 56.81 284.82 56.81 284.82 56.81 285.39 56.69 285.94 56.45 286.49 56.21 288.48 53.47 288.48 53.47L286.91 54.19 287.3 52.08 285.51 54.37 284.57 52.47 284.54 54.88C284.12 54.85 283.81 54.55 283.63 54.04 283.45 53.53 283.06 52.54 283.06 52.54L284.82 50.7C282.37 50.46 281.52 49.83 281.07 49.34 280.62 48.86 280.6 48.82 280.36 48.79 280.21 48.77 279.94 48.83 279.94 48.83 278.91 48.89 276.88 47.78 276.88 47.78 276.88 47.78 277.67 47.48 278.55 47 279.43 46.52 279.64 45.8 279.64 45.8L278.76 46.19 278.7 44.44 277.97 45.79 277.3 44.35 277.33 45.95 275.64 47.3 275.1 48.05 276.79 48.98C278.09 49.85 278.3 49.61 279.79 50.61L279.79 50.61ZM277.68 54.46C278.57 54.82 279.38 55.94 279.38 55.94L280.96 54.49C280.91 51.33 278.84 50.69 278.84 50.69 278.61 51.25 275.59 53.5 275.59 53.5 275.8 53.8 276.71 54.07 277.68 54.46L277.68 54.46ZM273.06 53.09C273.52 53.09 274.41 53.83 274.52 54.74 274.63 55.65 274.39 56.52 274.91 57.72 275.4 58.83 275.15 59.36 275.11 59.43 275.23 59.16 276.02 58.24 276.31 58.01 276.59 57.77 276.92 57.6 278.27 58.94 279.62 60.29 275.46 60.87 275.46 60.87L276.92 64 276.96 62.4 278.02 63.73 277.89 62.04 279 62.47 278.15 61.4 280.13 60.57C280.13 60.57 279.71 58.65 279.32 57.67 278.93 56.69 278.21 55.89 277.7 55.41 277.06 54.8 275.82 54.5 275.25 53.85 274.68 53.2 273.2 50.59 273.2 50.59L272.74 51.31C272.28 51.96 271.52 53.46 271.52 53.46L270.15 52.68 270.76 53.74 269.71 53.96 270.52 54.37 270.15 55.04 272.41 54.72 273.06 53.09 273.06 53.09ZM264.06 58.21C262.22 60.14 262.91 61.68 262.91 61.68 264.29 63.35 267.94 63.28 269.86 62.76 271.85 62.22 273.85 60.96 274.14 60.53 274.44 60.1 274.62 59.11 274.37 58.41 273.91 57.14 274.01 56.27 274.01 56.27 273.58 57.78 272.66 58.79 270.32 60.46 267.98 62.13 265.58 60.92 264.85 60.39 264.12 59.87 264.49 59.01 265.84 58 267.19 56.98 269.69 57.23 270.19 57.61 270.48 57.83 270.55 58.43 270.16 58.82 269.76 59.21 269.3 59.38 268.81 59.02 268.32 58.66 268.68 58.07 268.68 58.07 268.68 58.07 268.19 58.04 267.82 58.69 267.46 59.34 267.66 59.57 269.04 59.84 270.42 60.1 270.72 59.35 271.12 58.56 271.52 57.77 271.18 57.19 269.77 56.63 268.35 56.07 265.92 56.26 264.07 58.2L264.07 58.2ZM288.69 46.25C288.36 46.33 287.38 46.82 287.34 46.98 287.34 46.98 289.39 46.53 289.63 46.61 289.88 46.69 290.24 46.65 290.65 46.32 291.06 45.99 291.88 45.43 291.55 45.02 291.22 44.61 290.9 43.96 290.36 44.17 289.83 44.37 289.17 44.45 289.26 44.74 289.34 45.02 289.42 45.27 289.54 45.31 289.66 45.35 289.87 45.55 290.15 45.35 290.44 45.15 290.48 44.86 290.48 44.86 290.48 44.86 290.19 45.02 290.07 45.02 289.95 45.02 289.78 44.98 289.83 44.86 289.87 44.74 290.24 44.57 290.24 44.57 290.24 44.57 290.65 44.49 290.81 44.61 290.97 44.73 291.06 45.26 291.06 45.26 291.06 45.26 290.65 45.99 290.45 46.07 290.25 46.15 289.92 46.19 289.75 46.19 289.58 46.19 289.01 46.15 288.69 46.23L288.69 46.23ZM283.61 46.93C283.85 46.93 284.04 47.15 284.04 47.41 284.04 47.67 283.85 47.89 283.61 47.89 283.37 47.89 283.19 47.67 283.19 47.41 283.19 47.14 283.38 46.93 283.61 46.93L283.61 46.93ZM286.61 46.7C287.63 45.56 288.66 45.47 286.78 44.78 285.43 44.29 283.6 44.49 282.14 44.96 281.38 45.2 280.79 46.89 280.98 47.55 281.16 48.22 280.83 48.37 280.83 48.37 280.83 48.37 281.01 48.34 281.5 48.67 281.99 49 282.05 49.28 283.08 49.4 284.11 49.52 286.12 49.55 286.12 49.55L288.35 47.24 284.87 48.13C284.87 48.13 286.14 47.23 286.61 46.7L286.61 46.7Z" id="hagedis" fill="#3C3C3B" fill-rule="evenodd"/></g><path d="M49.35 142.19 30.67 142.19 30.67 74.35 34.04 74.35 40.17 64.41 46.95 74.35 49.35 74.35 49.35 142.19Z" fill="#C76C14"/><path d="M126.28 98.36 139.17 107.29 139.17 144.25 113.55 144.25 113.55 107.29 126.28 98.36ZM244.83 77.16 199.31 77.16 199.31 64.85 173.71 64.85 173.71 77.5 156.33 67.67 139.17 77.5 139.17 144.68 173.71 144.68 173.71 144.28 199.31 144.28 199.31 144.1 249.13 144.1 249.13 82.18 244.83 77.15ZM203 62.25 199.71 58.8 186.9 24.27 174.23 58.8 170.94 62.25 170.94 64.84 202.99 64.84 202.99 62.25ZM30.71 42.58 30.71 42.58 30.71 41.62 27.3 38.76 21.99 16.43 16.81 38.76 13.41 41.61 13.41 42.57 13.41 42.57 13.41 91 12.19 91 12.19 144.63 31.92 144.63 31.92 91 30.7 91 30.7 42.58ZM66.61 91.01 66.61 42.57 66.61 42.57 66.61 41.61 63.19 38.73 57.89 16.43 52.71 38.77 49.31 41.62 49.31 42.58 49.31 42.58 49.31 91 48.09 91 48.09 144.63 67.82 144.63 67.82 91 66.6 91ZM109.22 144.64 72.48 144.64 72.48 91.04 109.22 91.04 109.22 144.64ZM106.96 42.62 74.75 42.62 74.75 91.04 106.96 91.04 106.96 42.61ZM104.83 22.91 76.88 22.91 76.88 42.62 104.83 42.62 104.83 22.9ZM92.84 3.6C92.84 2.57 90.84 0 90.84 0 90.84 0 88.84 2.57 88.84 3.6 88.84 6.3 90.84 6.79 90.84 6.79 90.84 6.79 92.84 6.43 92.84 3.6ZM91.96 6.03 89.71 6.03 89.71 7.44 91.96 7.44 91.96 6.03ZM107.12 21.55 74.56 21.55 74.56 22.89 107.12 22.89 107.12 21.55ZM104.85 21.55C104.85 13.7 98.58 7.34 90.84 7.34 83.1 7.34 76.83 13.7 76.83 21.55L104.85 21.55ZM147.46 142.57 160.95 142.57 160.95 125.17 147.46 125.17 147.46 142.57ZM338.15 142.57 348.71 142.57 348.71 123.59 338.15 123.59 338.15 142.57ZM140.5 123.64 356.18 123.64 356.18 118.19 140.5 118.19 140.5 123.64ZM342.63 118.62C342.27 118.33 306.18 89.61 247.39 89.59L247.39 89.59C247.39 89.59 247.36 89.59 247.35 89.59 247.34 89.59 247.32 89.59 247.31 89.59L247.31 89.59C188.52 89.62 152.43 118.33 152.07 118.62L148.83 121.25 247.35 121.12 345.87 121.25 342.63 118.62ZM172.84 118.26 157.62 118.28C160.77 116.16 165.92 112.97 172.84 109.56L172.84 118.26ZM187.51 118.24 175.81 118.26 175.81 108.14C179.32 106.5 183.23 104.84 187.51 103.24L187.51 118.24ZM202.65 118.22 190.49 118.24 190.49 102.16C194.28 100.83 198.34 99.56 202.65 98.4L202.65 118.22ZM217.37 118.2 205.62 118.22 205.62 97.63C209.36 96.7 213.27 95.85 217.37 95.14L217.37 118.2ZM232.27 118.18 220.34 118.2 220.34 94.65C224.17 94.05 228.15 93.56 232.27 93.2L232.27 118.18ZM245.82 105.96 245.82 105.96 245.82 109.79 245.82 109.79 245.82 118.16 235.24 118.16C235.24 118.16 235.24 92.97 235.24 92.97 238.68 92.73 242.2 92.58 245.82 92.55L245.82 94.24 245.82 94.24 245.82 105.97ZM259.46 118.18 248.88 118.18 248.88 109.8 248.88 109.8 248.88 105.97 248.88 105.97 248.88 94.24 248.88 94.24 248.88 92.55C252.5 92.58 256.02 92.73 259.46 92.97L259.46 118.18ZM274.36 118.2 262.43 118.18 262.43 93.2C266.55 93.56 270.53 94.05 274.36 94.65L274.36 118.2ZM289.08 118.22 277.33 118.2 277.33 95.14C281.42 95.86 285.34 96.7 289.08 97.63L289.08 118.22ZM304.22 118.24 292.06 118.22 292.06 98.4C296.38 99.56 300.44 100.83 304.22 102.16L304.22 118.24ZM318.89 118.26 307.19 118.24 307.19 103.24C311.47 104.84 315.38 106.5 318.89 108.14L318.89 118.26ZM321.86 118.26 321.86 109.56C328.79 112.97 333.93 116.16 337.08 118.28L321.86 118.26ZM255.73 39.89 252.98 39.89 252.98 142.69 255.73 142.69 255.73 39.89ZM254.36 36.96C253.26 36.96 252.36 37.85 252.36 38.94 252.36 40.03 253.25 40.92 254.36 40.92 255.47 40.92 256.36 40.03 256.36 38.94 256.36 37.85 255.47 36.96 254.36 36.96Z" fill="url(#linear-gradient)"/><g><path d="M90.86 113.4 90.67 113.4C85.57 113.4 81.44 117.53 81.44 122.63L81.44 143.8C81.44 143.8 100.08 143.8 100.08 143.8L100.08 122.63C100.08 117.53 95.95 113.4 90.85 113.4Z" fill="#FFFFFF" opacity="0.5"/><path d="M100.53 144.23 81.02 144.23 81.02 122.56C81.02 117.27 85.36 112.97 90.69 112.97L90.86 112.97C96.19 112.97 100.53 117.27 100.53 122.56L100.53 144.23ZM81.89 143.37 99.66 143.37 99.66 122.57C99.66 117.76 95.71 113.84 90.86 113.84L90.69 113.84C85.84 113.84 81.89 117.76 81.89 122.57L81.89 143.37Z" fill="#B81526"/></g><rect x="85.16" y="83.66" width="11.37" height="1.29" fill="#B11827"/><rect x="16.37" y="66.31" width="11.37" height="0.99" fill="#C9571A"/><g><path d="M44.2 87.52C44.2 87.52 44.27 83.2 40.3 83.16 36.3 83.11 36.29 87.43 36.29 87.43L36.22 114.02 44.12 114.02C44.12 114.02 44.19 87.52 44.19 87.52Z" fill="#FFFFFF" opacity="0.5"/><path d="M35.79 114.45 35.86 87.43C35.86 87.34 35.88 85.21 37.28 83.84 38.04 83.09 39.08 82.72 40.3 82.73 41.53 82.74 42.53 83.14 43.27 83.9 44.63 85.29 44.63 87.4 44.62 87.53L44.55 114.45 35.78 114.45ZM40.23 83.6C39.26 83.6 38.47 83.89 37.89 84.46 36.74 85.58 36.73 87.42 36.73 87.44L36.66 113.6 43.69 113.6C43.69 113.6 43.76 87.53 43.76 87.53 43.76 87.52 43.76 86.51 43.33 85.52 42.77 84.27 41.75 83.62 40.3 83.6 40.28 83.6 40.26 83.6 40.24 83.6Z" fill="#AB4B17"/></g><rect x="34.43" y="113.18" width="11.37" height="1.7" fill="#AB4B17"/><path d="M91.42 142.78 90.11 142.78 90.11 113.86C90.11 113.86 90.58 113.83 90.76 113.84 90.97 113.84 91.42 113.86 91.42 113.86L91.42 142.78Z" fill="#B81526"/><g><path d="M43.81 122.35 36.21 122.35C35.99 122.35 35.81 122.53 35.81 122.75L35.81 143.9 44.21 143.9 44.21 122.75C44.21 122.53 44.03 122.35 43.81 122.35Z" fill="#FFFFFF" opacity="0.5"/><path d="M44.65 144.32 35.38 144.32 35.38 123.16C35.38 122.47 35.94 121.92 36.63 121.92L43.39 121.92C44.08 121.92 44.64 122.48 44.64 123.16L44.64 144.32ZM36.25 143.46 43.78 143.46 43.78 123.16C43.78 122.95 43.61 122.78 43.4 122.78L36.64 122.78C36.43 122.78 36.26 122.95 36.26 123.16L36.26 143.46Z" fill="#AB4B17"/></g><rect x="52.34" y="66.31" width="11.37" height="0.99" fill="#BF380A"/><rect x="139.19" y="77.58" width="34.53" height="0.99" fill="#B12A3A"/><rect x="172.93" y="77.58" width="0.79" height="67.72" fill="#B12A3A"/><rect x="138.39" y="107.36" width="0.79" height="34.81" fill="#C12E0C"/><rect x="199.32" y="77.16" width="0.79" height="68.13" fill="#A60552"/><rect x="249.14" y="118.17" width="0.79" height="5.47" fill="#642263"/><path d="M249.14 92.55 249.14 89.6 249.93 89.6 249.93 92.56C249.73 92.56 249.14 92.56 249.14 92.56Z" fill="#642263"/><rect x="113.59" y="107.36" width="25.59" height="0.99" fill="#C12E0C"/><rect x="173.71" y="64.85" width="25.59" height="0.99" fill="#A60552"/><rect x="74.73" y="90.04" width="32.21" height="0.99" fill="#B81526"/><rect x="76.87" y="41.6" width="27.95" height="0.99" fill="#B81526"/><rect x="76.87" y="22.9" width="27.95" height="0.43" fill="#B81526"/><path d="M91.96 7.39C91.96 7.39 91.11 7.36 90.83 7.36 90.55 7.36 89.71 7.39 89.71 7.39L89.71 6.93 91.96 6.93 91.96 7.39Z" fill="#B81526"/><path d="M34.33 75.2 30.67 75.2 30.67 73.48 33.34 73.48 40.3 61.76 47.24 73.12 49.31 73.12 49.31 74.84 46.26 74.84 40.32 65.12 34.33 75.2Z" fill="#AB4B17"/><rect x="18.04" y="9.6" width="7.9" height="1.29" fill="#D26218"/><rect x="21.34" y="5.78" width="1.31" height="13.42" fill="#D26218"/><rect x="53.94" y="9.61" width="7.9" height="1.29" fill="#D26218"/><rect x="57.24" y="5.79" width="1.31" height="13.42" fill="#D26218"/><path d="M85.54 39.07 80.15 39.07 80.15 28.85C80.15 28.85 80.12 25.4 82.85 25.4 85.58 25.4 85.54 28.85 85.54 28.85L85.54 39.07ZM93.54 28.85C93.54 28.85 93.55 25.4 90.85 25.4 88.15 25.4 88.15 28.85 88.15 28.85L88.15 39.07 93.54 39.07 93.54 28.85ZM101.54 28.85C101.54 28.85 101.55 25.4 98.85 25.4 96.15 25.4 96.15 28.85 96.15 28.85L96.15 39.07 101.54 39.07 101.54 28.85ZM94.8 57.48C94.8 57.48 94.82 53.16 90.85 53.16 86.88 53.16 86.9 57.48 86.9 57.48L86.9 84.1 94.8 84.1 94.8 57.48ZM26.15 57.53C26.15 57.53 26.22 53.21 22.25 53.17 18.28 53.13 18.24 57.44 18.24 57.44L18.19 66.75 26.08 66.71 26.14 57.53ZM217.19 89.99C217.19 89.99 217.2 86.54 214.5 86.54 211.8 86.54 211.8 89.99 211.8 89.99L211.8 100.21 217.19 100.21 217.19 89.99ZM227 89.99C227 89.99 227.01 86.54 224.31 86.54 221.61 86.54 221.61 89.99 221.61 89.99L221.61 100.21 227 100.21 227 89.99ZM236.81 89.99C236.81 89.99 236.82 86.54 234.12 86.54 231.42 86.54 231.42 89.99 231.42 89.99L231.42 100.21 236.81 100.21 236.81 89.99ZM193.78 122.35 179.12 122.35 179.12 143.47 193.78 143.47 193.78 122.35ZM217.65 113.96 211.4 113.96 211.4 129.99 217.65 129.99 217.65 113.96ZM227.33 113.96 221.08 113.96 221.08 129.99 227.33 129.99 227.33 113.96ZM154.7 113.96 148.45 113.96 148.45 129.99 154.7 129.99 154.7 113.96ZM164.38 113.96 158.13 113.96 158.13 129.99 164.38 129.99 164.38 113.96ZM124.6 127.29 118.35 127.29 118.35 137.11 124.6 137.11 124.6 127.29ZM134.28 127.29 128.03 127.29 128.03 137.11 134.28 137.11 134.28 127.29ZM124.6 113.83 118.35 113.83 118.35 123.65 124.6 123.65 124.6 113.83ZM134.28 113.83 128.03 113.83 128.03 123.65 134.28 123.65 134.28 113.83ZM154.69 88.2 148.44 88.2 148.44 104.23 154.69 104.23 154.69 88.2ZM164.37 88.2 158.12 88.2 158.12 104.23 164.37 104.23 164.37 88.2ZM237.49 113.95 231.24 113.95 231.24 129.98 237.49 129.98 237.49 113.95ZM62.11 57.52C62.11 57.52 62.18 53.2 58.21 53.16 54.24 53.12 54.2 57.43 54.2 57.43L54.15 66.74 62.04 66.7 62.1 57.52ZM186.48 102.68C182.72 102.68 179.66 105.71 179.66 109.44 179.66 113.17 182.71 116.2 186.48 116.2 190.25 116.2 193.3 113.17 193.3 109.44 193.3 105.71 190.25 102.68 186.48 102.68Z" fill="#FFFFFF" opacity="0.5"/><path d="M194.2 143.9 178.67 143.9 178.67 121.91 194.2 121.91 194.2 143.9ZM179.54 143.04 193.33 143.04 193.33 122.78 179.54 122.78 179.54 143.04ZM134.71 137.55 127.59 137.55 127.59 126.87 134.71 126.87 134.71 137.55ZM128.46 136.69 133.84 136.69 133.84 127.73 128.46 127.73 128.46 136.69ZM125.03 137.55 117.91 137.55 117.91 126.87 125.03 126.87 125.03 137.55ZM118.78 136.69 124.16 136.69 124.16 127.73 118.78 127.73 118.78 136.69ZM237.92 130.42 230.8 130.42 230.8 113.53 237.92 113.53 237.92 130.42ZM231.67 129.56 237.05 129.56 237.05 114.4 231.67 114.4 231.67 129.56ZM227.75 130.42 220.63 130.42 220.63 113.53 227.75 113.53 227.75 130.42ZM221.5 129.56 226.88 129.56 226.88 114.4 221.5 114.4 221.5 129.56ZM218.07 130.42 210.95 130.42 210.95 113.53 218.07 113.53 218.07 130.42ZM211.82 129.56 217.2 129.56 217.2 114.4 211.82 114.4 211.82 129.56ZM164.8 130.42 157.68 130.42 157.68 113.53 164.8 113.53 164.8 130.42ZM158.55 129.56 163.93 129.56 163.93 114.4 158.55 114.4 158.55 129.56ZM155.12 130.42 148 130.42 148 113.53 155.12 113.53 155.12 130.42ZM148.87 129.56 154.25 129.56 154.25 114.4 148.87 114.4 148.87 129.56ZM134.71 124.09 127.59 124.09 127.59 113.41 134.71 113.41 134.71 124.09ZM128.46 123.23 133.84 123.23 133.84 114.27 128.46 114.27 128.46 123.23ZM125.03 124.09 117.91 124.09 117.91 113.41 125.03 113.41 125.03 124.09ZM118.78 123.23 124.16 123.23 124.16 114.27 118.78 114.27 118.78 123.23ZM186.48 116.64C182.48 116.64 179.23 113.41 179.23 109.45 179.23 105.49 182.48 102.26 186.48 102.26 190.48 102.26 193.73 105.49 193.73 109.45 193.73 113.41 190.48 116.64 186.48 116.64ZM186.48 103.12C182.96 103.12 180.1 105.96 180.1 109.45 180.1 112.94 182.96 115.78 186.48 115.78 190 115.78 192.86 112.94 192.86 109.45 192.86 105.96 190 103.12 186.48 103.12ZM164.81 104.68 157.69 104.68 157.69 87.79 164.81 87.79 164.81 104.68ZM158.56 103.82 163.94 103.82 163.94 88.66 158.56 88.66 158.56 103.82ZM155.13 104.68 148.01 104.68 148.01 87.79 155.13 87.79 155.13 104.68ZM148.88 103.82 154.26 103.82 154.26 88.66 148.88 88.66 148.88 103.82ZM237.24 100.65 230.98 100.65 230.98 90C230.98 89.92 230.98 88.03 232.09 86.91 232.62 86.38 233.3 86.12 234.11 86.12 234.92 86.12 235.59 86.38 236.11 86.91 237.23 88.03 237.24 89.93 237.24 90.01L237.24 100.66ZM231.85 99.79 236.37 99.79 236.37 90C236.37 90 236.37 89.19 236.06 88.41 235.68 87.45 235.04 86.98 234.11 86.98 233.53 86.98 233.07 87.16 232.71 87.52 231.84 88.39 231.85 89.98 231.85 90L231.85 99.79ZM227.43 100.65 221.17 100.65 221.17 90C221.17 89.92 221.17 88.03 222.28 86.91 222.81 86.38 223.48 86.12 224.3 86.12 225.12 86.12 225.78 86.38 226.3 86.91 227.42 88.03 227.43 89.93 227.43 90.01L227.43 100.66ZM222.04 99.79 226.56 99.79 226.56 90C226.56 90 226.56 89.19 226.25 88.41 225.87 87.45 225.23 86.98 224.3 86.98 223.72 86.98 223.27 87.16 222.9 87.52 222.04 88.38 222.03 89.99 222.03 90L222.03 99.79ZM217.62 100.65 211.36 100.65 211.36 90C211.36 89.92 211.36 88.03 212.47 86.91 213 86.38 213.67 86.12 214.49 86.12 215.31 86.12 215.97 86.38 216.49 86.91 217.61 88.03 217.62 89.93 217.62 90.01L217.62 100.66ZM212.23 99.79 216.75 99.79 216.75 90C216.75 90 216.75 89.19 216.44 88.41 216.06 87.45 215.42 86.98 214.49 86.98 213.91 86.98 213.46 87.16 213.09 87.52 212.23 88.38 212.22 89.99 212.22 90L212.22 99.79ZM95.23 84.54 86.46 84.54 86.46 57.49C86.46 57.4 86.46 55.27 87.84 53.88 88.6 53.12 89.61 52.74 90.85 52.74 92.09 52.74 93.08 53.12 93.84 53.87 95.23 55.26 95.24 57.4 95.24 57.49L95.24 84.54ZM87.33 83.68 94.36 83.68 94.36 57.49C94.36 57.49 94.36 56.47 93.9 55.49 93.32 54.24 92.29 53.61 90.84 53.61 89.84 53.61 89.04 53.91 88.45 54.5 87.32 55.63 87.32 57.48 87.32 57.49L87.32 83.68ZM53.73 67.19 53.78 57.44C53.78 57.35 53.8 55.22 55.2 53.85 55.97 53.1 56.99 52.72 58.22 52.74 59.45 52.75 60.45 53.15 61.19 53.91 62.56 55.31 62.55 57.45 62.55 57.54L62.49 67.14 53.73 67.18ZM58.16 53.61C57.19 53.61 56.4 53.9 55.82 54.46 54.68 55.57 54.65 57.43 54.65 57.45L54.6 66.33 61.62 66.3 61.68 57.54C61.68 57.54 61.68 56.52 61.25 55.53 60.69 54.28 59.67 53.63 58.22 53.61 58.2 53.61 58.18 53.61 58.16 53.61ZM17.76 67.19 17.81 57.44C17.81 57.35 17.83 55.22 19.23 53.85 19.99 53.1 21.03 52.72 22.25 52.74 23.48 52.75 24.48 53.15 25.22 53.91 26.58 55.3 26.58 57.4 26.58 57.54L26.52 67.15 17.76 67.19ZM22.19 53.61C21.22 53.61 20.43 53.9 19.85 54.46 18.71 55.57 18.68 57.43 18.68 57.45L18.63 66.33 25.65 66.3 25.71 57.54C25.71 57.54 25.71 56.52 25.28 55.53 24.72 54.28 23.7 53.63 22.25 53.61 22.23 53.61 22.21 53.61 22.19 53.61ZM101.98 39.52 95.72 39.52 95.72 28.87C95.72 28.79 95.72 26.9 96.83 25.78 97.36 25.25 98.04 24.99 98.85 24.99 99.66 24.99 100.33 25.25 100.85 25.78 101.97 26.9 101.98 28.8 101.98 28.88L101.98 39.53ZM96.59 38.66 101.11 38.66 101.11 28.87C101.11 28.87 101.11 28.06 100.8 27.28 100.42 26.32 99.78 25.85 98.85 25.85 98.27 25.85 97.82 26.03 97.45 26.39 96.59 27.25 96.59 28.86 96.59 28.87L96.59 38.66ZM93.98 39.52 87.72 39.52 87.72 28.87C87.72 28.79 87.72 26.9 88.83 25.78 89.36 25.25 90.04 24.99 90.85 24.99 91.66 24.99 92.33 25.25 92.85 25.78 93.97 26.9 93.98 28.8 93.98 28.88L93.98 39.53ZM88.59 38.66 93.11 38.66 93.11 28.87C93.11 28.87 93.11 28.06 92.8 27.28 92.42 26.32 91.78 25.85 90.85 25.85 90.27 25.85 89.82 26.03 89.45 26.39 88.59 27.25 88.59 28.86 88.59 28.87L88.59 38.66ZM85.98 39.52 79.72 39.52 79.72 28.87C79.72 28.79 79.72 26.9 80.83 25.78 81.36 25.25 82.03 24.99 82.85 24.99 83.67 24.99 84.33 25.25 84.85 25.78 85.97 26.9 85.98 28.8 85.98 28.88L85.98 39.53ZM80.59 38.66 85.11 38.66 85.11 28.87C85.11 28.87 85.11 28.06 84.8 27.28 84.42 26.32 83.78 25.85 82.85 25.85 82.27 25.85 81.82 26.03 81.45 26.39 80.59 27.25 80.58 28.86 80.58 28.87L80.58 38.66Z" fill="url(#linear-gradient-2)"/><rect x="4.53" y="142.18" width="359.47" height="3.53" fill="url(#linear-gradient-3)"/><rect x="4.53" y="142.18" width="359.47" height="0.67" fill="url(#linear-gradient-4)"/><rect x="13.41" y="90.15" width="17.31" height="0.86" fill="#C9571A"/><rect x="49.3" y="90.14" width="17.31" height="0.86" fill="#DF4C0D"/><rect x="13.41" y="41.62" width="17.31" height="0.86" fill="#C9571A"/><rect x="49.31" y="41.61" width="17.3" height="0.86" fill="#DF4C0D"/><rect x="210.11" y="99.78" width="8.75" height="1.24" fill="url(#linear-gradient-5)"/><rect x="220.01" y="99.78" width="8.75" height="1.24" fill="#6D1C74"/><rect x="229.74" y="99.78" width="8.75" height="1.24" fill="#4A236B"/><rect x="79.25" y="38.64" width="7.19" height="1.1" fill="#B81526"/><rect x="87.25" y="38.64" width="7.19" height="1.1" fill="#B81526"/><rect x="95.22" y="38.64" width="7.19" height="1.1" fill="#B81526"/><path d="M35.36 191.9 23.09 191.9 23.09 212.18C23.09 213.44 23.12 214.68 23.19 215.91 23.25 217.14 23.49 218.24 23.9 219.21 24.31 220.19 24.95 220.97 25.8 221.57 26.66 222.17 27.91 222.47 29.56 222.47 30.57 222.47 31.62 222.38 32.7 222.19 33.78 222 34.76 221.66 35.65 221.15L35.65 228.89C34.63 229.46 33.32 229.85 31.7 230.07 30.08 230.29 28.83 230.4 27.94 230.4 24.64 230.4 22.09 229.94 20.28 229.03 18.47 228.12 17.14 226.94 16.28 225.49 15.42 224.04 14.92 222.42 14.76 220.63 14.6 218.84 14.52 217.03 14.52 215.2L14.52 191.9 4.63 191.9 4.63 184.54 14.53 184.54 14.53 171.99 23.09 171.99 23.09 184.54 35.36 184.54 35.36 191.9ZM44.2 206.9C44.2 203.63 44.82 200.58 46.05 197.75 47.29 194.92 48.98 192.44 51.14 190.3 53.3 188.16 55.83 186.48 58.75 185.25 61.67 184.02 64.81 183.41 68.17 183.41 71.53 183.41 74.67 184.02 77.59 185.25 80.51 186.48 83.04 188.16 85.2 190.3 87.35 192.44 89.05 194.92 90.29 197.75 91.53 200.58 92.15 203.63 92.15 206.9 92.15 210.17 91.53 213.24 90.29 216.1 89.05 218.96 87.36 221.45 85.2 223.55 83.04 225.66 80.51 227.32 77.59 228.55 74.67 229.78 71.53 230.39 68.17 230.39 64.81 230.39 61.67 229.78 58.75 228.55 55.83 227.32 53.3 225.66 51.14 223.55 48.98 221.44 47.29 218.96 46.05 216.1 44.81 213.24 44.2 210.17 44.2 206.9ZM53.33 206.9C53.33 209.16 53.68 211.26 54.38 213.17 55.08 215.09 56.06 216.72 57.33 218.08 58.6 219.43 60.15 220.5 61.99 221.29 63.83 222.08 65.89 222.47 68.17 222.47 70.45 222.47 72.51 222.08 74.35 221.29 76.19 220.5 77.74 219.44 79.01 218.08 80.28 216.73 81.26 215.09 81.96 213.17 82.66 211.25 83.01 209.16 83.01 206.9 83.01 204.64 82.66 202.55 81.96 200.63 81.26 198.71 80.28 197.08 79.01 195.72 77.74 194.37 76.19 193.3 74.35 192.51 72.51 191.72 70.45 191.33 68.17 191.33 65.89 191.33 63.83 191.72 61.99 192.51 60.15 193.3 58.6 194.37 57.33 195.72 56.06 197.07 55.08 198.71 54.38 200.63 53.68 202.55 53.33 204.64 53.33 206.9ZM102.89 184.54 111.45 184.54 111.45 190.96 111.64 190.96C113.29 188.57 115.56 186.72 118.44 185.39 121.33 184.07 124.29 183.41 127.33 183.41 130.82 183.41 133.97 184.01 136.79 185.2 139.61 186.4 142.02 188.06 144.02 190.2 146.02 192.34 147.55 194.84 148.63 197.7 149.71 200.56 150.25 203.63 150.25 206.9 150.25 210.17 149.71 213.33 148.63 216.19 147.55 219.05 146.01 221.54 144.02 223.64 142.02 225.75 139.61 227.4 136.79 228.59 133.97 229.78 130.81 230.38 127.33 230.38 124.1 230.38 121.05 229.7 118.2 228.35 115.35 227 113.16 225.16 111.64 222.83L111.45 222.83 111.45 255.85 102.89 255.85 102.89 184.53ZM126.29 191.33C124.01 191.33 121.95 191.72 120.11 192.51 118.27 193.3 116.72 194.37 115.45 195.72 114.18 197.07 113.2 198.71 112.5 200.63 111.8 202.55 111.45 204.64 111.45 206.9 111.45 209.16 111.8 211.26 112.5 213.17 113.2 215.09 114.18 216.72 115.45 218.08 116.72 219.43 118.27 220.5 120.11 221.29 121.95 222.08 124.01 222.47 126.29 222.47 128.57 222.47 130.63 222.08 132.47 221.29 134.31 220.5 135.86 219.44 137.13 218.08 138.4 216.73 139.38 215.09 140.08 213.17 140.78 211.25 141.13 209.16 141.13 206.9 141.13 204.64 140.78 202.55 140.08 200.63 139.38 198.71 138.4 197.08 137.13 195.72 135.86 194.37 134.31 193.3 132.47 192.51 130.63 191.72 128.57 191.33 126.29 191.33ZM159.68 168.5C159.68 166.8 160.3 165.34 161.53 164.11 162.76 162.88 164.24 162.27 165.95 162.27 167.66 162.27 169.14 162.88 170.37 164.11 171.61 165.34 172.23 166.8 172.23 168.5 172.23 170.2 171.61 171.66 170.37 172.89 169.13 174.12 167.66 174.73 165.95 174.73 164.24 174.73 162.76 174.12 161.53 172.89 160.29 171.66 159.68 170.2 159.68 168.5ZM161.68 184.54 170.24 184.54 170.24 229.26 161.68 229.26 161.68 184.54ZM216.09 196.43C214.5 194.79 212.84 193.55 211.1 192.7 209.36 191.85 207.28 191.43 204.87 191.43 202.46 191.43 200.48 191.85 198.74 192.7 197 193.55 195.54 194.71 194.36 196.19 193.19 197.67 192.3 199.37 191.7 201.28 191.1 203.2 190.8 205.2 190.8 207.27 190.8 209.34 191.15 211.31 191.85 213.17 192.55 215.03 193.53 216.65 194.8 218.03 196.07 219.41 197.59 220.5 199.37 221.28 201.14 222.07 203.14 222.46 205.36 222.46 207.77 222.46 209.83 222.04 211.54 221.19 213.25 220.34 214.84 219.1 216.3 217.46L222.39 223.5C220.17 225.95 217.59 227.71 214.64 228.78 211.69 229.85 208.57 230.38 205.27 230.38 201.78 230.38 198.6 229.81 195.71 228.68 192.82 227.55 190.34 225.96 188.24 223.92 186.15 221.88 184.53 219.42 183.39 216.56 182.25 213.7 181.68 210.54 181.68 207.08 181.68 203.62 182.25 200.45 183.39 197.55 184.53 194.66 186.13 192.17 188.19 190.1 190.25 188.02 192.72 186.41 195.61 185.24 198.5 184.08 201.71 183.49 205.26 183.49 208.56 183.49 211.71 184.07 214.72 185.24 217.73 186.4 220.35 188.18 222.57 190.57L216.1 196.42ZM227.5 206.9C227.5 203.63 228.12 200.58 229.35 197.75 230.59 194.92 232.28 192.44 234.44 190.3 236.6 188.16 239.13 186.48 242.05 185.25 244.97 184.02 248.1 183.41 251.47 183.41 254.84 183.41 257.97 184.02 260.89 185.25 263.81 186.48 266.34 188.16 268.5 190.3 270.66 192.44 272.35 194.92 273.59 197.75 274.83 200.58 275.45 203.63 275.45 206.9 275.45 210.17 274.83 213.24 273.59 216.1 272.35 218.96 270.66 221.45 268.5 223.55 266.34 225.66 263.81 227.32 260.89 228.55 257.97 229.78 254.83 230.39 251.47 230.39 248.11 230.39 244.97 229.78 242.05 228.55 239.13 227.32 236.6 225.66 234.44 223.55 232.28 221.44 230.59 218.96 229.35 216.1 228.11 213.24 227.5 210.17 227.5 206.9ZM236.63 206.9C236.63 209.16 236.98 211.26 237.68 213.17 238.38 215.09 239.36 216.72 240.63 218.08 241.9 219.43 243.45 220.5 245.29 221.29 247.13 222.08 249.19 222.47 251.47 222.47 253.75 222.47 255.81 222.08 257.65 221.29 259.49 220.5 261.04 219.44 262.31 218.08 263.58 216.73 264.56 215.09 265.26 213.17 265.96 211.25 266.31 209.16 266.31 206.9 266.31 204.64 265.96 202.55 265.26 200.63 264.56 198.71 263.58 197.08 262.31 195.72 261.04 194.37 259.49 193.3 257.65 192.51 255.81 191.72 253.75 191.33 251.47 191.33 249.19 191.33 247.13 191.72 245.29 192.51 243.45 193.3 241.9 194.37 240.63 195.72 239.36 197.07 238.38 198.71 237.68 200.63 236.98 202.55 236.63 204.64 236.63 206.9ZM286.19 184.54 294.75 184.54 294.75 191.43 294.94 191.43C296.02 189.04 297.89 187.11 300.55 185.63 303.21 184.15 306.29 183.41 309.78 183.41 311.93 183.41 314.01 183.74 316.01 184.4 318.01 185.06 319.75 186.08 321.24 187.47 322.73 188.85 323.92 190.63 324.81 192.8 325.7 194.97 326.14 197.53 326.14 200.49L326.14 229.26 317.58 229.26 317.58 202.84C317.58 200.76 317.3 198.99 316.72 197.51 316.15 196.03 315.39 194.84 314.44 193.93 313.49 193.02 312.4 192.36 311.16 191.95 309.92 191.54 308.64 191.34 307.31 191.34 305.53 191.34 303.89 191.62 302.36 192.19 300.84 192.76 299.51 193.65 298.36 194.88 297.22 196.11 296.33 197.66 295.7 199.55 295.07 201.44 294.75 203.67 294.75 206.25L294.75 229.27 286.19 229.27 286.19 184.55ZM342.4 191.9 332.7 191.9 332.7 184.54 342.4 184.54 342.4 174.54C342.4 168.57 343.56 164.11 345.87 161.19 348.18 158.27 352.16 156.8 357.81 156.8 358.76 156.8 359.76 156.83 360.81 156.89 361.86 156.95 362.98 157.14 364.19 157.46L363.24 165.01C362.42 164.7 361.62 164.48 360.86 164.35 360.1 164.22 359.27 164.16 358.39 164.16 356.8 164.16 355.54 164.4 354.59 164.87 353.64 165.34 352.89 166.02 352.35 166.9 351.81 167.78 351.46 168.83 351.3 170.06 351.14 171.29 351.06 172.69 351.06 174.26L351.06 184.54 361.24 184.54 361.24 191.9 350.97 191.9 350.97 229.26 342.41 229.26 342.41 191.9Z" fill="url(#linear-gradient-6)"/><rect x="338.15" y="123.59" width="10.56" height="1.19" fill="#1C75A1"/><path d="M186.97 122.78 186.97 142.18 186.03 142.18 186.03 122.78" fill="#A90C43"/><g><path d="M345.68 155.97C344.72 156 343.7 156.01 342.61 156.01 333.77 156.01 329.47 155.01 324.91 153.95 320.33 152.89 315.6 151.78 306.28 151.78 296.96 151.78 292.23 152.88 287.65 153.95 283.1 155.01 278.8 156.01 269.95 156.01 261.1 156.01 256.81 155.01 252.25 153.95 247.67 152.88 242.94 151.78 233.62 151.78 224.3 151.78 219.57 152.88 214.99 153.95 210.44 155.01 206.14 156.01 197.29 156.01 188.44 156.01 184.15 155.01 179.59 153.95 175.01 152.88 170.28 151.78 160.96 151.78 151.64 151.78 146.91 152.88 142.33 153.95 137.78 155.01 133.48 156.01 124.63 156.01 115.78 156.01 111.49 155.01 106.93 153.95 102.35 152.89 97.62 151.78 88.3 151.78 78.98 151.78 74.25 152.88 69.67 153.95 65.12 155.01 60.82 156.01 51.97 156.01 43.12 156.01 38.93 155 34.41 153.93 29.97 152.88 25.38 151.79 16.61 151.79 9.77 151.79 3.24 154.32 0.79 155.27 0.42 155.41 0.15 155.52 9.50351e-14 155.57L0.46 157.54 0.46 159.57C0.94 159.57 1.25 159.45 2.28 159.05 4.54 158.18 10.54 155.85 16.61 155.85 24.89 155.85 29.06 156.83 33.46 157.88 38.02 158.96 42.74 160.07 51.97 160.07 61.2 160.07 66.02 158.97 70.6 157.9 75.15 156.84 79.45 155.84 88.3 155.84 97.15 155.84 101.44 156.84 106 157.9 110.58 158.96 115.31 160.07 124.63 160.07 133.95 160.07 138.68 158.97 143.26 157.9 147.81 156.84 152.11 155.84 160.96 155.84 169.81 155.84 174.1 156.84 178.66 157.9 183.24 158.96 187.97 160.07 197.29 160.07 206.61 160.07 211.34 158.97 215.92 157.9 220.47 156.84 224.77 155.84 233.62 155.84 242.47 155.84 246.76 156.84 251.32 157.9 255.9 158.96 260.63 160.07 269.95 160.07 279.27 160.07 284 158.97 288.58 157.9 293.13 156.84 297.43 155.84 306.28 155.84 315.13 155.84 319.42 156.84 323.98 157.9 328.37 158.92 332.94 159.96 341.51 160.05 341.74 159.72 341.96 159.38 342.2 159.07 343.17 157.84 344.35 156.82 345.68 155.96Z" fill="url(#linear-gradient-7)"/><path d="M125.17 164.46C116.33 164.46 112.03 163.46 107.47 162.4 102.89 161.34 98.16 160.24 88.84 160.24 79.52 160.24 74.79 161.34 70.21 162.4 65.66 163.46 61.36 164.46 52.51 164.46 43.66 164.46 39.37 163.46 34.81 162.4 30.23 161.34 25.5 160.24 16.18 160.24L16.18 164.31C25.02 164.31 29.32 165.31 33.88 166.37 38.46 167.43 43.19 168.53 52.51 168.53 61.83 168.53 66.56 167.43 71.14 166.37 75.69 165.31 79.99 164.31 88.84 164.31 97.69 164.31 101.98 165.31 106.54 166.37 111.12 167.43 115.85 168.53 125.17 168.53 134.49 168.53 139.22 167.43 143.8 166.37 147.35 165.54 150.77 164.76 156.29 164.46 156.94 162.82 158 161.41 159.32 160.28 151.44 160.44 147.07 161.44 142.87 162.41 138.32 163.47 134.02 164.47 125.17 164.47Z" fill="url(#linear-gradient-8)"/><path d="M325.44 162.4C320.86 161.34 316.13 160.24 306.81 160.24 297.49 160.24 292.76 161.34 288.18 162.4 283.63 163.46 279.33 164.46 270.48 164.46 261.63 164.46 257.34 163.46 252.78 162.4 248.2 161.34 243.47 160.24 234.15 160.24 224.83 160.24 220.1 161.34 215.52 162.4 210.97 163.46 206.67 164.46 197.82 164.46 188.97 164.46 184.68 163.46 180.12 162.4 178.32 161.98 176.48 161.56 174.37 161.2 175.56 162.5 176.42 164.08 176.86 165.83 177.64 166 178.42 166.18 179.19 166.36 183.77 167.42 188.5 168.52 197.82 168.52 207.14 168.52 211.87 167.42 216.45 166.36 221 165.3 225.3 164.3 234.15 164.3 243 164.3 247.29 165.3 251.85 166.36 256.43 167.42 261.16 168.52 270.48 168.52 279.8 168.52 284.53 167.42 289.11 166.36 293.66 165.3 297.96 164.3 306.81 164.3 315.66 164.3 319.95 165.3 324.51 166.36 328.21 167.22 332.06 168.09 338.3 168.4 338.56 166.96 338.91 165.62 339.34 164.38 332.97 164.14 329.28 163.29 325.44 162.4Z" fill="url(#linear-gradient-9)"/></g></g></g></svg>